<svg width="32" height="32" viewBox="0 0 32 32" fill="none" xmlns="http://www.w3.org/2000/svg">
<path d="M18.6666 24.4266C17.2124 23.7237 15.9635 22.6585 15.04 21.3333H3.99998V5.33329H28V8.34663C29.0794 9.10532 29.9879 10.0819 30.6666 11.2133V5.33329C30.6666 4.62605 30.3857 3.94777 29.8856 3.44767C29.3855 2.94758 28.7072 2.66663 28 2.66663H3.99998C3.29274 2.66663 2.61446 2.94758 2.11436 3.44767C1.61426 3.94777 1.33331 4.62605 1.33331 5.33329V21.3333C1.33331 22.0405 1.61426 22.7188 2.11436 23.2189C2.61446 23.719 3.29274 24 3.99998 24H13.3333V26.6666H10.6666V29.3333H21.3333V26.6666H18.6666V24.4266Z" fill="url(#paint0_linear_103_3655)"/>
<path d="M22.6667 8C21.0844 8 19.5377 8.46919 18.2221 9.34824C16.9065 10.2273 15.8812 11.4767 15.2757 12.9385C14.6702 14.4003 14.5117 16.0089 14.8204 17.5607C15.1291 19.1126 15.891 20.538 17.0098 21.6569C18.1287 22.7757 19.5541 23.5376 21.106 23.8463C22.6578 24.155 24.2663 23.9965 25.7282 23.391C27.19 22.7855 28.4394 21.7602 29.3184 20.4446C30.1975 19.129 30.6667 17.5823 30.6667 16C30.6667 13.8783 29.8238 11.8434 28.3235 10.3431C26.8233 8.84285 24.7884 8 22.6667 8ZM22.6667 18C22.2711 18 21.8844 17.8827 21.5555 17.6629C21.2267 17.4432 20.9703 17.1308 20.8189 16.7654C20.6676 16.3999 20.6279 15.9978 20.7051 15.6098C20.7823 15.2219 20.9728 14.8655 21.2525 14.5858C21.5322 14.3061 21.8885 14.1156 22.2765 14.0384C22.6645 13.9613 23.0666 14.0009 23.4321 14.1522C23.7975 14.3036 24.1099 14.56 24.3296 14.8889C24.5494 15.2178 24.6667 15.6044 24.6667 16C24.6667 16.5304 24.456 17.0391 24.0809 17.4142C23.7058 17.7893 23.1971 18 22.6667 18Z" fill="url(#paint1_linear_103_3655)"/>
<defs>
<linearGradient id="paint0_linear_103_3655" x1="16" y1="2.66663" x2="16" y2="29.3333" gradientUnits="userSpaceOnUse">
<stop stop-color="#174050"/>
<stop offset="0.35" stop-color="#32BDF2"/>
<stop offset="0.705" stop-color="#001D28"/>
<stop offset="1" stop-color="#3492B6"/>
</linearGradient>
<linearGradient id="paint1_linear_103_3655" x1="22.6667" y1="8" x2="22.6667" y2="24" gradientUnits="userSpaceOnUse">
<stop stop-color="#174050"/>
<stop offset="0.35" stop-color="#32BDF2"/>
<stop offset="0.705" stop-color="#001D28"/>
<stop offset="1" stop-color="#3492B6"/>
</linearGradient>
</defs>
</svg>
