<svg width="32" height="32" viewBox="0 0 32 32" fill="none" xmlns="http://www.w3.org/2000/svg">
<path d="M21.3333 2.66663H10.6667C9.95942 2.66663 9.28115 2.94758 8.78105 3.44767C8.28095 3.94777 8 4.62605 8 5.33329V26.6666C8 27.3739 8.28095 28.0521 8.78105 28.5522C9.28115 29.0523 9.95942 29.3333 10.6667 29.3333H21.3333C22.0406 29.3333 22.7189 29.0523 23.219 28.5522C23.719 28.0521 24 27.3739 24 26.6666V5.33329C24 4.62605 23.719 3.94777 23.219 3.44767C22.7189 2.94758 22.0406 2.66663 21.3333 2.66663ZM17.3333 28H14.6667V26.6666H17.3333V28ZM21.3333 25.3333H10.6667V6.66663H21.3333V25.3333Z" fill="url(#paint0_linear_103_3663)"/>
<defs>
<linearGradient id="paint0_linear_103_3663" x1="16" y1="2.66663" x2="16" y2="29.3333" gradientUnits="userSpaceOnUse">
<stop stop-color="#174050"/>
<stop offset="0.5" stop-color="#009EDA"/>
<stop offset="1" stop-color="#3492B6"/>
</linearGradient>
</defs>
</svg>
