<svg width="32" height="32" viewBox="0 0 32 32" fill="none" xmlns="http://www.w3.org/2000/svg">
<path d="M12 8.00008V2.66675M12 29.3334V24.0001M20 29.3334V24.0001M29.3333 20.0001H24M8 20.0001H2.66667M8 12.0001H2.66667M20 4.00008C22.1217 4.00008 24.1566 4.84294 25.6569 6.34323C27.1571 7.84352 28 9.87835 28 12.0001M8 9.33341C8 8.97979 8.14048 8.64065 8.39053 8.39061C8.64058 8.14056 8.97972 8.00008 9.33334 8.00008H20C21.0609 8.00008 22.0783 8.42151 22.8284 9.17165C23.5786 9.9218 24 10.9392 24 12.0001V22.6667C24 23.0204 23.8595 23.3595 23.6095 23.6096C23.3594 23.8596 23.0203 24.0001 22.6667 24.0001H9.33334C8.97972 24.0001 8.64058 23.8596 8.39053 23.6096C8.14048 23.3595 8 23.0204 8 22.6667V9.33341Z" stroke="url(#paint0_linear_103_3639)" stroke-width="2"/>
<defs>
<linearGradient id="paint0_linear_103_3639" x1="16" y1="2.66675" x2="16" y2="29.3334" gradientUnits="userSpaceOnUse">
<stop stop-color="#174050"/>
<stop offset="0.58" stop-color="#00B1F4"/>
<stop offset="1" stop-color="#3492B6"/>
</linearGradient>
</defs>
</svg>
