<svg width="32" height="32" viewBox="0 0 32 32" fill="none" xmlns="http://www.w3.org/2000/svg">
<path d="M15.3334 26.6667C14.2222 26.6667 13.2778 26.2778 12.5 25.5C11.7222 24.7222 11.3334 23.7778 11.3334 22.6667H14C14 23.0444 14.128 23.3613 14.384 23.6173C14.64 23.8733 14.9565 24.0009 15.3334 24C15.7102 23.9991 16.0271 23.8711 16.284 23.616C16.5409 23.3609 16.6685 23.0444 16.6667 22.6667C16.6649 22.2889 16.5369 21.9724 16.2827 21.7173C16.0285 21.4622 15.712 21.3342 15.3334 21.3333H2.66669V18.6667H15.3334C16.4445 18.6667 17.3889 19.0556 18.1667 19.8333C18.9445 20.6111 19.3334 21.5556 19.3334 22.6667C19.3334 23.7778 18.9445 24.7222 18.1667 25.5C17.3889 26.2778 16.4445 26.6667 15.3334 26.6667ZM2.66669 13.3333V10.6667H20.6667C21.2445 10.6667 21.7222 10.4778 22.1 10.1C22.4778 9.72222 22.6667 9.24445 22.6667 8.66667C22.6667 8.08889 22.4778 7.61111 22.1 7.23334C21.7222 6.85556 21.2445 6.66667 20.6667 6.66667C20.0889 6.66667 19.6111 6.85556 19.2334 7.23334C18.8556 7.61111 18.6667 8.08889 18.6667 8.66667H16C16 7.35556 16.4502 6.24978 17.3507 5.34933C18.2511 4.44889 19.3565 3.99911 20.6667 4C21.9769 4.00089 23.0827 4.45111 23.984 5.35067C24.8854 6.25022 25.3351 7.35556 25.3334 8.66667C25.3316 9.97778 24.8818 11.0836 23.984 11.984C23.0862 12.8844 21.9805 13.3342 20.6667 13.3333H2.66669ZM24.6667 24V21.3333C25.2445 21.3333 25.7222 21.1444 26.1 20.7667C26.4778 20.3889 26.6667 19.9111 26.6667 19.3333C26.6667 18.7556 26.4778 18.2778 26.1 17.9C25.7222 17.5222 25.2445 17.3333 24.6667 17.3333H2.66669V14.6667H24.6667C25.9778 14.6667 27.0836 15.1169 27.984 16.0173C28.8845 16.9178 29.3342 18.0231 29.3334 19.3333C29.3325 20.6436 28.8827 21.7493 27.984 22.6507C27.0854 23.552 25.9796 24.0018 24.6667 24Z" fill="url(#paint0_linear_103_3632)"/>
<defs>
<linearGradient id="paint0_linear_103_3632" x1="16" y1="4" x2="16" y2="26.6667" gradientUnits="userSpaceOnUse">
<stop stop-color="#174050"/>
<stop offset="0.555" stop-color="#34C7FE"/>
<stop offset="1" stop-color="#3492B6"/>
</linearGradient>
</defs>
</svg>
