<svg width="32" height="32" viewBox="0 0 32 32" fill="none" xmlns="http://www.w3.org/2000/svg">
<g clip-path="url(#clip0_103_3670)">
<path d="M25.3333 4C26.0406 4 26.7189 4.28095 27.219 4.78105C27.719 5.28115 28 5.95942 28 6.66667V21.3333C28 22.0406 27.719 22.7189 27.219 23.219C26.7189 23.719 26.0406 24 25.3333 24H20V25.3333H21.3333C21.687 25.3333 22.0261 25.4738 22.2761 25.7239C22.5262 25.9739 22.6667 26.313 22.6667 26.6667C22.6667 27.0203 22.5262 27.3594 22.2761 27.6095C22.0261 27.8595 21.687 28 21.3333 28H10.6667C10.313 28 9.97391 27.8595 9.72386 27.6095C9.47381 27.3594 9.33333 27.0203 9.33333 26.6667C9.33333 26.313 9.47381 25.9739 9.72386 25.7239C9.97391 25.4738 10.313 25.3333 10.6667 25.3333H12V24H6.66667C5.95942 24 5.28115 23.719 4.78105 23.219C4.28095 22.7189 4 22.0406 4 21.3333V6.66667C4 5.95942 4.28095 5.28115 4.78105 4.78105C5.28115 4.28095 5.95942 4 6.66667 4H25.3333ZM17.3333 24H14.6667V25.3333H17.3333V24ZM25.3333 6.66667H6.66667V21.3333H25.3333V6.66667Z" fill="url(#paint0_linear_103_3670)"/>
</g>
<defs>
<linearGradient id="paint0_linear_103_3670" x1="16" y1="4" x2="16" y2="28" gradientUnits="userSpaceOnUse">
<stop stop-color="#174050"/>
<stop offset="0.5" stop-color="#009BD6"/>
<stop offset="1" stop-color="#3492B6"/>
</linearGradient>
<clipPath id="clip0_103_3670">
<rect width="32" height="32" fill="white"/>
</clipPath>
</defs>
</svg>
