<svg width="20" height="21" viewBox="0 0 20 21" fill="none" xmlns="http://www.w3.org/2000/svg">
<g clip-path="url(#clip0_197_3611)">
<mask id="mask0_197_3611" style="mask-type:luminance" maskUnits="userSpaceOnUse" x="0" y="0" width="20" height="21">
<path d="M10 20.5C15.5228 20.5 20 16.0228 20 10.5C20 4.97715 15.5228 0.5 10 0.5C4.47715 0.5 0 4.97715 0 10.5C0 16.0228 4.47715 20.5 10 20.5Z" fill="white"/>
</mask>
<g mask="url(#mask0_197_3611)">
<path d="M0 0.5L0.3125 1.35938L0 2.25781V3.15625L1.25 5.26562L0 7.375V8.625L1.25 10.5L0 12.375V13.625L1.25 15.7344L0 17.8438V20.5L0.859375 20.1875L1.75781 20.5H2.65625L4.76562 19.25L6.875 20.5H8.125L10 19.25L11.875 20.5H13.125L15.2344 19.25L17.3438 20.5H20L19.6875 19.6406L20 18.7422V17.8438L18.75 15.7344L20 13.625V12.375L18.75 10.5L20 8.625V7.375L18.75 5.26562L20 3.15625V0.5L19.1406 0.8125L18.2422 0.5H17.3438L15.2344 1.75L13.125 0.5H11.875L10 1.75L8.125 0.5H6.875L4.76562 1.75L2.65625 0.5H0Z" fill="#EEEEEE"/>
<path d="M13.125 0.5V4.71875L17.3438 0.5H13.125ZM20 3.15625L15.7812 7.375H20V3.15625ZM0 7.375H4.21875L0 3.15625V7.375ZM2.65625 0.5L6.875 4.71875V0.5H2.65625ZM6.875 20.5V16.2812L2.65625 20.5H6.875ZM0 17.8438L4.21875 13.625H0V17.8438ZM20 13.625H15.7812L20 17.8438V13.625ZM17.3438 20.5L13.125 16.2812V20.5H17.3438Z" fill="#0052B4"/>
<path d="M0 0.5V2.25781L5.11719 7.375H6.875L0 0.5ZM8.125 0.5V8.625H0V12.375H8.125V20.5H11.875V12.375H20V8.625H11.875V0.5H8.125ZM18.2422 0.5L13.125 5.61719V7.375L20 0.5H18.2422ZM6.875 13.625L0 20.5H1.75781L6.875 15.3828V13.625ZM13.125 13.625L20 20.5V18.7422L14.8828 13.625H13.125Z" fill="#D80027"/>
</g>
</g>
<defs>
<clipPath id="clip0_197_3611">
<rect width="20" height="20" fill="white" transform="translate(0 0.5)"/>
</clipPath>
</defs>
</svg>
