<svg width="23" height="16" viewBox="0 0 23 16" fill="none" xmlns="http://www.w3.org/2000/svg">
<path d="M2.62778 0.399994C1.9839 0.399994 1.36639 0.646366 0.91109 1.08491C0.455795 1.52346 0.200012 2.11825 0.200012 2.73845L0.200012 13.2615C0.200012 13.8817 0.455795 14.4765 0.91109 14.915C1.36639 15.3536 1.9839 15.6 2.62778 15.6H7.48333V0.399994H2.62778Z" fill="#009A49"/>
<path d="M7.48315 0.399994H14.7665V15.6H7.48315V0.399994Z" fill="#EEEEEE"/>
<path d="M19.6221 0.399994H14.7666V15.6H19.6221C20.266 15.6 20.8835 15.3536 21.3388 14.915C21.7941 14.4765 22.0499 13.8817 22.0499 13.2615V2.73845C22.0499 2.11825 21.7941 1.52346 21.3388 1.08491C20.8835 0.646366 20.266 0.399994 19.6221 0.399994Z" fill="#009A49"/>
</svg>
